<svg xmlns="http://www.w3.org/2000/svg" width="414" height="596" viewBox="0 0 414 596" fill="none"><path fill-rule="evenodd" clip-rule="evenodd" d="M640.188 279.656C640.845 279.656 641.377 280.188 641.377 280.845C641.377 281.501 640.845 282.034 640.188 282.034H350.081C341.244 282.034 334.081 289.197 334.081 298.034V406C334.081 414.837 341.244 422 350.081 422H419.906H599.138C599.794 422 600.326 422.533 600.326 423.189C600.326 423.846 599.794 424.378 599.138 424.378H437.095C428.258 424.378 421.095 431.541 421.095 440.378L421.095 450.687C421.095 451.344 420.563 451.876 419.906 451.876C419.25 451.876 418.718 451.344 418.718 450.687L418.718 440.378C418.718 431.541 411.554 424.378 402.718 424.378H332.892H262.065C253.228 424.378 246.065 431.541 246.065 440.378V576.141C246.065 584.321 252.696 590.952 260.876 590.952H286.213C286.869 590.952 287.402 591.484 287.402 592.141C287.402 592.797 286.869 593.33 286.213 593.33H260.876C251.383 593.33 243.688 585.634 243.688 576.141V423.336V422.648C243.688 422.371 243.912 422.147 244.188 422.147H244.615C244.656 422.147 244.689 422.114 244.689 422.074C244.689 422.033 244.722 422 244.762 422H245.877H315.703C324.54 422 331.703 414.837 331.703 406V280.845V154.501C331.703 146.321 325.072 139.69 316.892 139.69L17.1885 139.69C7.6955 139.69 -0.00018269 131.994 -0.000183105 122.501L5.4289e-05 -31.5003C5.42603e-05 -32.1568 0.532235 -32.689 1.18871 -32.689C1.84519 -32.689 2.37737 -32.1568 2.37737 -31.5003L2.37714 122.501C2.37714 130.681 9.00848 137.312 17.1885 137.312L316.892 137.312C326.385 137.312 334.081 145.008 334.081 154.501V263.656C334.081 272.493 341.244 279.656 350.08 279.656H640.188Z" fill="#F0F1EB"></path><path d="M428 338L403 338C394.163 338 387 330.837 387 322L387 282" stroke="#F0F1EB" stroke-width="2.37731" stroke-linecap="square"></path><circle cx="289.624" cy="591.554" r="4.37471" fill="#E0DAD2"></circle></svg>