<svg xmlns="http://www.w3.org/2000/svg" width="28" height="20" viewBox="0 0 28 20" fill="none"><path fill-rule="evenodd" clip-rule="evenodd" d="M18.9743 0.999796C18.4888 0.509019 17.6974 0.504756 17.2066 0.990275C16.7158 1.47579 16.7116 2.26724 17.1971 2.75802L23.0051 8.62891H14H12.8303V11.1289H14H23.0051L17.1971 16.9998C16.7116 17.4906 16.7158 18.282 17.2066 18.7675C17.6974 19.2531 18.4888 19.2488 18.9743 18.758L26.8886 10.758C27.3705 10.271 27.3705 9.48684 26.8886 8.9998L18.9743 0.999796ZM8.49805 11.1289V8.62891H2C1.30964 8.62891 0.75 9.18855 0.75 9.87891C0.75 10.5693 1.30964 11.1289 2 11.1289H8.49805Z" fill="#F8F8F4"></path></svg>